<?xml version="1.0" standalone="no"?>
<!DOCTYPE svg PUBLIC "-//W3C//DTD SVG 20010904//EN"
 "http://www.w3.org/TR/2001/REC-SVG-20010904/DTD/svg10.dtd">
<svg version="1.0" xmlns="http://www.w3.org/2000/svg"
 width="1280.000000pt" height="346.000000pt" viewBox="0 0 1280.000000 346.000000"
 preserveAspectRatio="xMidYMid meet">

<g transform="translate(0.000000,346.000000) scale(0.100000,-0.100000)"
stroke="none" fill="rgb(217,30,41)">
<path d="M0 1735 l0 -1725 21 0 c11 0 80 9 152 20 73 10 170 24 217 30 47 6
102 13 122 16 l38 6 2 938 3 938 304 -892 c167 -490 307 -895 311 -899 8 -9
542 47 574 59 14 6 16 165 16 1620 l0 1614 -270 0 -270 0 0 -977 c0 -537 -3
-973 -7 -970 -3 4 -162 442 -353 975 l-347 967 -256 3 -257 2 0 -1725z"/>
<path d="M2290 1865 l0 -1595 43 5 c23 3 159 14 302 25 517 39 1031 80 1088
86 l57 6 0 259 0 259 -27 -5 c-16 -2 -95 -7 -178 -10 -82 -3 -278 -14 -435
-25 -157 -11 -293 -20 -303 -20 -16 0 -17 24 -15 403 l3 402 225 6 c124 4 287
7 363 8 l137 1 0 267 0 266 -365 -6 -365 -7 0 365 0 365 480 0 480 0 0 270 0
270 -745 0 -745 0 0 -1595z"/>
<path d="M4130 3190 l0 -270 280 0 280 0 0 -1247 0 -1246 128 6 c70 4 191 7
270 7 l142 0 0 1240 0 1240 280 0 280 0 0 270 0 270 -830 0 -830 0 0 -270z"/>
<path d="M6140 1965 l0 -1495 265 0 265 0 0 610 0 610 370 0 370 0 0 270 0
270 -370 0 -370 0 0 345 0 345 490 0 490 0 0 270 0 270 -755 0 -755 0 0 -1495z"/>
<path d="M7990 1946 l0 -1513 188 -7 c359 -13 1015 -47 1190 -62 l72 -6 0 266
c0 206 -3 266 -12 266 -7 0 -157 9 -333 20 -176 11 -360 20 -410 20 -49 0
-107 3 -127 6 l-38 7 0 1258 0 1259 -265 0 -265 0 0 -1514z"/>
<path d="M9900 1891 l0 -1568 113 -7 c149 -9 344 -25 385 -32 l32 -5 0 1591 0
1590 -265 0 -265 0 0 -1569z"/>
<path d="M10900 3455 c0 -2 140 -365 310 -805 171 -440 310 -806 310 -813 0
-7 -155 -365 -345 -796 -189 -432 -344 -786 -342 -787 1 -1 111 -14 245 -28
134 -15 263 -30 286 -35 l43 -8 193 451 c106 248 196 454 200 458 3 5 93 -217
200 -491 l193 -499 293 -48 c162 -26 296 -45 300 -42 3 4 -146 409 -332 900
-185 491 -337 898 -337 904 0 8 518 1259 649 1567 l33 77 -295 -2 -295 -3
-187 -447 c-102 -247 -189 -448 -192 -448 -3 0 -84 202 -180 450 l-175 450
-287 0 c-159 0 -288 -2 -288 -5z"/>
</g>
</svg>
